<svg width="1280" height="720" xmlns="http://www.w3.org/2000/svg" xmlns:xlink="http://www.w3.org/1999/xlink" overflow="hidden"><defs><clipPath id="clip0"><rect x="0" y="0" width="1280" height="720"/></clipPath></defs><g clip-path="url(#clip0)"><rect x="0" y="0" width="1280" height="720" fill="#FFFFFF"/><rect x="99" y="114" width="60" height="60"/><rect x="159" y="174" width="59" height="60"/><rect x="69.5001" y="84.5001" width="596" height="477" stroke="#000000" stroke-width="1.33333" stroke-miterlimit="8" fill="none"/><rect x="218" y="114" width="60" height="60"/><rect x="278" y="174" width="59" height="60"/><rect x="337" y="114" width="60" height="60"/><rect x="397" y="174" width="59" height="60"/><rect x="456" y="114" width="60" height="60"/><rect x="516" y="174" width="59" height="60"/><rect x="576" y="114" width="59" height="60"/><path d="M0 0 53.8046 0.000104987" stroke="#4472C4" stroke-width="1.66667" stroke-miterlimit="8" fill="none" fill-rule="evenodd" transform="matrix(-1 0 0 1 698.805 114)"/><path d="M0 0 53.8046 0.000104987" stroke="#4472C4" stroke-width="1.66667" stroke-miterlimit="8" fill="none" fill-rule="evenodd" transform="matrix(-1 0 0 1 698.805 174)"/><path d="M0.333298-0.0048208 0.549638 14.9524-0.116959 14.9621-0.333298 0.0048208ZM4.19664 13.5662 0.312756 21.6232-3.80252 13.6819Z" fill="#4472C4" transform="matrix(1 0 0 -1 688.5 135.123)"/><path d="M689.833 150.5 689.833 167.295 689.167 167.295 689.167 150.5ZM693.5 165.961 689.5 173.961 685.5 165.961Z" fill="#4472C4"/><text font-family="Calibri,Calibri_MSFontService,sans-serif" font-weight="400" font-size="14" transform="translate(673.652 152)">0.120m</text><path d="M0 0 53.8046 0.000104987" stroke="#4472C4" stroke-width="1.66667" stroke-miterlimit="8" fill="none" fill-rule="evenodd" transform="matrix(-1 0 0 1 698.805 234)"/><path d="M0.333298-0.0048208 0.549638 14.9524-0.116959 14.9621-0.333298 0.0048208ZM4.19664 13.5662 0.312756 21.6232-3.80252 13.6819Z" fill="#4472C4" transform="matrix(1 0 0 -1 688.5 196.123)"/><path d="M689.833 210.5 689.833 227.295 689.167 227.295 689.167 210.5ZM693.5 225.961 689.5 233.961 685.5 225.961Z" fill="#4472C4"/><text font-family="Calibri,Calibri_MSFontService,sans-serif" font-weight="400" font-size="14" transform="translate(673.652 212)">0.120m</text><path d="M0 0 53.8046 0.000104987" stroke="#4472C4" stroke-width="1.66667" stroke-miterlimit="8" fill="none" fill-rule="evenodd" transform="matrix(-1 0 0 1 700.805 536)"/><path d="M0 0 53.8046 0.000104987" stroke="#4472C4" stroke-width="1.66667" stroke-miterlimit="8" fill="none" fill-rule="evenodd" transform="matrix(-1 0 0 1 698.805 84)"/><text font-family="Calibri,Calibri_MSFontService,sans-serif" font-weight="400" font-size="14" transform="translate(673.652 105)">0.060m</text><path d="M0 0 0.000104987 40.9052" stroke="#4472C4" stroke-width="1.66667" stroke-miterlimit="8" fill="none" fill-rule="evenodd" transform="matrix(1 0 0 -1 636 586.905)"/><path d="M0 0 0.000104987 40.9052" stroke="#4472C4" stroke-width="1.66667" stroke-miterlimit="8" fill="none" fill-rule="evenodd" transform="matrix(1 0 0 -1 666 586.905)"/><text font-family="Calibri,Calibri_MSFontService,sans-serif" font-weight="400" font-size="14" transform="matrix(-1.83697e-16 -1 1 -1.83697e-16 655.995 607)">0.060m<tspan font-size="14" x="1.04339e-13" y="-567.998">0.060m</tspan></text><path d="M0 0 0.000104987 40.9052" stroke="#4472C4" stroke-width="1.66667" stroke-miterlimit="8" fill="none" fill-rule="evenodd" transform="matrix(1 0 0 -1 69 586.905)"/><path d="M0 0 0.000104987 40.9052" stroke="#4472C4" stroke-width="1.66667" stroke-miterlimit="8" fill="none" fill-rule="evenodd" transform="matrix(1 0 0 -1 99 587.905)"/><path d="M0 0 0.000104987 40.9052" stroke="#4472C4" stroke-width="1.66667" stroke-miterlimit="8" fill="none" fill-rule="evenodd" transform="matrix(1 0 0 -1 159 586.905)"/><path d="M0 0 0.000104987 40.9052" stroke="#4472C4" stroke-width="1.66667" stroke-miterlimit="8" fill="none" fill-rule="evenodd" transform="matrix(1 0 0 -1 219 586.905)"/><text font-family="Calibri,Calibri_MSFontService,sans-serif" font-weight="400" font-size="14" transform="matrix(-1.83697e-16 -1 1 -1.83697e-16 130.299 607)">0.120m<tspan font-size="14" x="-1.14969e-14" y="62.5865">0.120m</tspan></text><path d="M137.5 583.167 153.513 583.167 153.513 583.833 137.5 583.833ZM152.179 579.5 160.179 583.5 152.179 587.5Z" fill="#4472C4"/><path d="M1.72983e-06-0.333333 13.564-0.333263 13.564 0.333404-1.72983e-06 0.333333ZM12.2307-3.99994 20.2307 0.000104987 12.2306 4.00006Z" fill="#4472C4" transform="matrix(-1 0 0 1 119.731 583.5)"/><path d="M196.5 583.167 212.513 583.167 212.513 583.833 196.5 583.833ZM211.179 579.5 219.179 583.5 211.179 587.5Z" fill="#4472C4"/><path d="M1.72983e-06-0.333333 13.564-0.333263 13.564 0.333404-1.72983e-06 0.333333ZM12.2307-3.99994 20.2307 0.000104987 12.2306 4.00006Z" fill="#4472C4" transform="matrix(-1 0 0 1 179.731 583.5)"/><path d="M0 0 0.000104987 40.9052" stroke="#4472C4" stroke-width="1.66667" stroke-miterlimit="8" fill="none" fill-rule="evenodd" transform="matrix(1 0 0 -1 279 586.905)"/><text font-family="Calibri,Calibri_MSFontService,sans-serif" font-weight="400" font-size="14" transform="matrix(-1.83697e-16 -1 1 -1.83697e-16 252.58 607)">0.120m</text><path d="M256.5 583.167 272.513 583.167 272.513 583.833 256.5 583.833ZM271.179 579.5 279.179 583.5 271.179 587.5Z" fill="#4472C4"/><path d="M1.72983e-06-0.333333 13.564-0.333263 13.564 0.333404-1.72983e-06 0.333333ZM12.2307-3.99994 20.2307 0.000104987 12.2306 4.00006Z" fill="#4472C4" transform="matrix(-1 0 0 1 239.731 583.5)"/><path d="M0 0 0.000104987 40.9052" stroke="#4472C4" stroke-width="1.66667" stroke-miterlimit="8" fill="none" fill-rule="evenodd" transform="matrix(1 0 0 -1 338 586.905)"/><text font-family="Calibri,Calibri_MSFontService,sans-serif" font-weight="400" font-size="14" transform="matrix(-1.83697e-16 -1 1 -1.83697e-16 312.929 607)">0.120m</text><path d="M315.5 583.167 331.513 583.167 331.513 583.833 315.5 583.833ZM330.179 579.5 338.179 583.5 330.179 587.5Z" fill="#4472C4"/><path d="M1.72983e-06-0.333333 13.564-0.333263 13.564 0.333404-1.72983e-06 0.333333ZM12.2307-3.99994 20.2307 0.000104987 12.2306 4.00006Z" fill="#4472C4" transform="matrix(-1 0 0 1 299.731 583.5)"/><path d="M0 0 0.000104987 40.9052" stroke="#4472C4" stroke-width="1.66667" stroke-miterlimit="8" fill="none" fill-rule="evenodd" transform="matrix(1 0 0 -1 397 587.905)"/><path d="M0 0 0.000104987 40.9052" stroke="#4472C4" stroke-width="1.66667" stroke-miterlimit="8" fill="none" fill-rule="evenodd" transform="matrix(1 0 0 -1 457 586.905)"/><text font-family="Calibri,Calibri_MSFontService,sans-serif" font-weight="400" font-size="14" transform="matrix(-1.83697e-16 -1 1 -1.83697e-16 431.66 607)">0.120m</text><path d="M434.5 583.167 450.513 583.167 450.513 583.833 434.5 583.833ZM449.179 579.5 457.179 583.5 449.179 587.5Z" fill="#4472C4"/><path d="M1.72983e-06-0.333333 13.564-0.333263 13.564 0.333404-1.72983e-06 0.333333ZM12.2307-3.99994 20.2307 0.000104987 12.2306 4.00006Z" fill="#4472C4" transform="matrix(-1 0 0 1 418.731 583.5)"/><text font-family="Calibri,Calibri_MSFontService,sans-serif" font-weight="400" font-size="14" transform="matrix(-1.83697e-16 -1 1 -1.83697e-16 372.038 607)">0.120m</text><path d="M374.5 583.167 390.513 583.167 390.513 583.833 374.5 583.833ZM389.179 579.5 397.179 583.5 389.179 587.5Z" fill="#4472C4"/><path d="M1.72983e-06-0.333333 13.564-0.333263 13.564 0.333404-1.72983e-06 0.333333ZM12.2307-3.99994 20.2307 0.000104987 12.2306 4.00006Z" fill="#4472C4" transform="matrix(-1 0 0 1 358.731 583.5)"/><path d="M0 0 0.000104987 40.9052" stroke="#4472C4" stroke-width="1.66667" stroke-miterlimit="8" fill="none" fill-rule="evenodd" transform="matrix(1 0 0 -1 517 586.905)"/><text font-family="Calibri,Calibri_MSFontService,sans-serif" font-weight="400" font-size="14" transform="matrix(-1.83697e-16 -1 1 -1.83697e-16 490.884 607)">0.120m</text><path d="M493.5 583.167 510.487 583.167 510.487 583.833 493.5 583.833ZM509.154 579.5 517.154 583.5 509.153 587.5Z" fill="#4472C4"/><path d="M1.72983e-06-0.333333 13.564-0.333263 13.564 0.333404-1.72983e-06 0.333333ZM12.2307-3.99994 20.2307 0.000104987 12.2306 4.00006Z" fill="#4472C4" transform="matrix(-1 0 0 1 477.731 583.5)"/><path d="M0 0 0.000104987 40.9052" stroke="#4472C4" stroke-width="1.66667" stroke-miterlimit="8" fill="none" fill-rule="evenodd" transform="matrix(1 0 0 -1 577 586.905)"/><text font-family="Calibri,Calibri_MSFontService,sans-serif" font-weight="400" font-size="14" transform="matrix(-1.83697e-16 -1 1 -1.83697e-16 550.659 607)">0.120m</text><path d="M553.5 583.167 570.487 583.167 570.487 583.833 553.5 583.833ZM569.154 579.5 577.154 583.5 569.154 587.5Z" fill="#4472C4"/><path d="M1.72983e-06-0.333333 13.564-0.333263 13.564 0.333404-1.72983e-06 0.333333ZM12.2307-3.99994 20.2307 0.000104987 12.2306 4.00006Z" fill="#4472C4" transform="matrix(-1 0 0 1 537.731 583.5)"/><text font-family="Calibri,Calibri_MSFontService,sans-serif" font-weight="400" font-size="14" transform="matrix(-1.83697e-16 -1 1 -1.83697e-16 610.736 607)">0.120m</text><path d="M613.5 583.167 630.487 583.167 630.487 583.833 613.5 583.833ZM629.154 579.5 637.154 583.5 629.154 587.5Z" fill="#4472C4"/><path d="M1.72983e-06-0.333333 13.564-0.333263 13.564 0.333404-1.72983e-06 0.333333ZM12.2307-3.99994 20.2307 0.000104987 12.2306 4.00006Z" fill="#4472C4" transform="matrix(-1 0 0 1 597.731 583.5)"/><rect x="99" y="234" width="59" height="59"/><rect x="158" y="293" width="60" height="60"/><rect x="218" y="234" width="60" height="59"/><rect x="278" y="293" width="59" height="60"/><rect x="337" y="234" width="60" height="59"/><rect x="397" y="293" width="59" height="60"/><rect x="456" y="234" width="60" height="59"/><rect x="516" y="293" width="59" height="60"/><rect x="576" y="234" width="59" height="59"/><rect x="99" y="353" width="59" height="60"/><rect x="158" y="413" width="60" height="59"/><rect x="218" y="353" width="60" height="60"/><rect x="278" y="413" width="59" height="59"/><rect x="337" y="353" width="60" height="60"/><rect x="397" y="413" width="59" height="59"/><rect x="456" y="353" width="60" height="60"/><rect x="516" y="413" width="59" height="59"/><rect x="576" y="353" width="59" height="60"/><rect x="98" y="472" width="60" height="59"/><rect x="218" y="472" width="59" height="59"/><rect x="337" y="472" width="59" height="59"/><rect x="456" y="472" width="59" height="59"/><rect x="575" y="472" width="60" height="59"/><path d="M0 0 53.8046 0.000104987" stroke="#4472C4" stroke-width="1.66667" stroke-miterlimit="8" fill="none" fill-rule="evenodd" transform="matrix(-1 0 0 1 698.805 294)"/><path d="M0.333298-0.0048208 0.549638 14.9524-0.116959 14.9621-0.333298 0.0048208ZM4.19664 13.5662 0.312756 21.6232-3.80252 13.6819Z" fill="#4472C4" transform="matrix(1 0 0 -1 689.5 256.123)"/><path d="M689.833 270.5 689.833 287.295 689.167 287.295 689.167 270.5ZM693.5 285.961 689.5 293.961 685.5 285.961Z" fill="#4472C4"/><text font-family="Calibri,Calibri_MSFontService,sans-serif" font-weight="400" font-size="14" transform="translate(674.191 272)">0.120m</text><path d="M0 0 53.8046 0.000104987" stroke="#4472C4" stroke-width="1.66667" stroke-miterlimit="8" fill="none" fill-rule="evenodd" transform="matrix(-1 0 0 1 699.805 354)"/><path d="M0.333298-0.0048208 0.549638 14.9524-0.116959 14.9621-0.333298 0.0048208ZM4.19664 13.5662 0.312756 21.6232-3.80252 13.6819Z" fill="#4472C4" transform="matrix(1 0 0 -1 689.5 316.123)"/><path d="M690.833 330.5 690.833 347.295 690.167 347.295 690.167 330.5ZM694.5 345.961 690.5 353.961 686.5 345.961Z" fill="#4472C4"/><text font-family="Calibri,Calibri_MSFontService,sans-serif" font-weight="400" font-size="14" transform="translate(674.718 332)">0.120m</text><path d="M0 0 53.8046 0.000104987" stroke="#4472C4" stroke-width="1.66667" stroke-miterlimit="8" fill="none" fill-rule="evenodd" transform="matrix(-1 0 0 1 699.805 413)"/><path d="M0.333298-0.0048208 0.549638 14.9524-0.116959 14.9621-0.333298 0.0048208ZM4.19664 13.5662 0.312756 21.6232-3.80252 13.6819Z" fill="#4472C4" transform="matrix(1 0 0 -1 689.5 375.123)"/><path d="M690.833 390.5 690.833 407.295 690.167 407.295 690.167 390.5ZM694.5 405.961 690.5 413.961 686.5 405.961Z" fill="#4472C4"/><text font-family="Calibri,Calibri_MSFontService,sans-serif" font-weight="400" font-size="14" transform="translate(674.718 392)">0.120m</text><path d="M0 0 53.8046 0.000104987" stroke="#4472C4" stroke-width="1.66667" stroke-miterlimit="8" fill="none" fill-rule="evenodd" transform="matrix(-1 0 0 1 699.805 473)"/><path d="M0.333298-0.0048208 0.549638 14.9524-0.116959 14.9621-0.333298 0.0048208ZM4.19664 13.5662 0.312756 21.6232-3.80252 13.6819Z" fill="#4472C4" transform="matrix(1 0 0 -1 689.5 435.123)"/><path d="M690.833 450.5 690.833 467.295 690.167 467.295 690.167 450.5ZM694.5 465.961 690.5 473.961 686.5 465.961Z" fill="#4472C4"/><text font-family="Calibri,Calibri_MSFontService,sans-serif" font-weight="400" font-size="14" transform="translate(674.718 452)">0.120m</text><path d="M0 0 53.8046 0.000104987" stroke="#4472C4" stroke-width="1.66667" stroke-miterlimit="8" fill="none" fill-rule="evenodd" transform="matrix(-1 0 0 1 701.805 561)"/><path d="M0.333298-0.0048208 0.549638 14.9524-0.116959 14.9621-0.333298 0.0048208ZM4.19664 13.5662 0.312756 21.6232-3.80252 13.6819Z" fill="#4472C4" transform="matrix(1 0 0 -1 689.5 496.123)"/><path d="M689.833 510.5 689.833 527.295 689.167 527.295 689.167 510.5ZM693.5 525.961 689.5 533.961 685.5 525.961Z" fill="#4472C4"/><text font-family="Calibri,Calibri_MSFontService,sans-serif" font-weight="400" font-size="14" transform="translate(674.025 512)">0.120m<tspan font-size="14" x="0.693359" y="41">0.060m</tspan></text><rect x="526.5" y="31.5001" width="110" height="19" stroke="#2F528F" stroke-width="1.33333" stroke-miterlimit="8" fill="none"/><path d="M517.334 35.0626 508.166 35.0626 479.747 96.2992" stroke="#2F528F" stroke-width="1.33333" stroke-miterlimit="8" fill="none" fill-rule="evenodd"/><text font-family="Calibri,Calibri_MSFontService,sans-serif" font-weight="400" font-size="19" transform="translate(550.252 46)">padding</text><rect x="163.5" y="642.5" width="111" height="19" stroke="#2F528F" stroke-width="1.33333" stroke-miterlimit="8" fill="none"/><path d="M154.25 646.063 145 646.063 98.2532 590.825" stroke="#2F528F" stroke-width="1.33333" stroke-miterlimit="8" fill="none" fill-rule="evenodd"/><text font-family="Calibri,Calibri_MSFontService,sans-serif" font-weight="400" font-size="19" transform="translate(185.713 657)">x<tspan font-size="19" x="8.16666" y="0">_tick</tspan><tspan font-size="19" x="44.5" y="0">[0]</tspan></text><rect x="641.5" y="642.5" width="110" height="19" stroke="#2F528F" stroke-width="1.33333" stroke-miterlimit="8" fill="none"/><path d="M632.334 646.063 623.166 646.063 576.841 590.825" stroke="#2F528F" stroke-width="1.33333" stroke-miterlimit="8" fill="none" fill-rule="evenodd"/><text font-family="Calibri,Calibri_MSFontService,sans-serif" font-weight="400" font-size="19" transform="translate(663.047 657)">x<tspan font-size="19" x="8.16669" y="0">_tick</tspan><tspan font-size="19" x="44.5" y="0">[8]</tspan></text><rect x="795.5" y="473.5" width="111" height="20" stroke="#2F528F" stroke-width="1.33333" stroke-miterlimit="8" fill="none"/><path d="M786.25 477.25 777 477.25 700.419 472.931" stroke="#2F528F" stroke-width="1.33333" stroke-miterlimit="8" fill="none" fill-rule="evenodd"/><text font-family="Calibri,Calibri_MSFontService,sans-serif" font-weight="400" font-size="19" transform="translate(818.288 489)">z_tick<tspan font-size="19" x="43.6667" y="0">[1]</tspan></text><rect x="795.5" y="174.5" width="111" height="19" stroke="#2F528F" stroke-width="1.33333" stroke-miterlimit="8" fill="none"/><path d="M786.25 178.063 777 178.063 700.419 173.96" stroke="#2F528F" stroke-width="1.33333" stroke-miterlimit="8" fill="none" fill-rule="evenodd"/><text font-family="Calibri,Calibri_MSFontService,sans-serif" font-weight="400" font-size="19" transform="translate(818.288 189)">z_tick<tspan font-size="19" x="43.6667" y="0">[6]</tspan></text><path d="M568.5 471.5C568.5 468.186 571.41 465.5 575 465.5 578.59 465.5 581.5 468.186 581.5 471.5 581.5 474.814 578.59 477.5 575 477.5 571.41 477.5 568.5 474.814 568.5 471.5Z" stroke="#2F528F" stroke-width="1.33333" stroke-miterlimit="8" fill="#4472C4" fill-rule="evenodd"/><rect x="756.5" y="363.5" width="183" height="58" stroke="#2F528F" stroke-width="1.33333" stroke-miterlimit="8" fill="none"/><path d="M741.251 374.375 725.999 374.375 582.703 468.392" stroke="#2F528F" stroke-width="1.33333" stroke-miterlimit="8" fill="none" fill-rule="evenodd"/><text font-family="Calibri,Calibri_MSFontService,sans-serif" font-weight="400" font-size="11" transform="translate(810.986 383)">VICON MARKERS<tspan font-size="11" x="-38.2534" y="13">“markers”:[[x1, y1, z1], [x2,y2,z2]],</tspan><tspan font-size="11" x="-30.5" y="26">“correspondence”:[[8,1], [8,6]]</tspan></text><path d="M581.5 178.5 724.938 373.229" stroke="#4472C4" stroke-width="1.33333" stroke-miterlimit="8" fill="none" fill-rule="evenodd"/><path d="M570.5 173.5C570.5 170.186 573.41 167.5 577 167.5 580.59 167.5 583.5 170.186 583.5 173.5 583.5 176.814 580.59 179.5 577 179.5 573.41 179.5 570.5 176.814 570.5 173.5Z" stroke="#2F528F" stroke-width="1.33333" stroke-miterlimit="8" fill="#4472C4" fill-rule="evenodd"/></g></svg>